<?xml version="1.0" encoding="utf-8"?>
<!-- Generator: Adobe Illustrator 24.2.0, SVG Export Plug-In . SVG Version: 6.00 Build 0)  -->
<svg version="1.1" id="Livello_1" xmlns="http://www.w3.org/2000/svg" xmlns:xlink="http://www.w3.org/1999/xlink" x="0px" y="0px"
	 viewBox="0 0 618.1 157.5" style="enable-background:new 0 0 618.1 157.5;" xml:space="preserve">
<style type="text/css">
	.st0{fill:#FFFFFF;}
</style>
<g>
	<path class="st0" d="M73.9,12.4c-39.5,0-71.5,32-71.5,71.5s32,71.5,71.5,71.5c39.5,0,71.5-32,71.5-71.5S113.4,12.4,73.9,12.4z
		 M73.9,107.8C60.7,107.8,50,97.1,50,83.9s10.7-23.8,23.8-23.8c13.2,0,23.8,10.7,23.8,23.8S87,107.8,73.9,107.8z"/>
	
		<ellipse transform="matrix(0.9732 -0.2298 0.2298 0.9732 -1.0043 43.8274)" class="st0" cx="187.7" cy="26.2" rx="23.8" ry="23.8"/>
	<path class="st0" d="M187.7,60.1c-12.8,0-23.2,10.1-23.8,22.7h-0.1v48.8c0,13.2,10.7,23.8,23.8,23.8s23.8-10.7,23.8-23.8V82.8h-0.1
		C210.9,70.2,200.5,60.1,187.7,60.1z"/>
	<path class="st0" d="M616.7,83.9C616.7,83.9,616.7,83.9,616.7,83.9c0-39.5-32-71.5-71.5-71.5c-39.3,0-71.2,31.7-71.5,71h0v0.5
		c0,0,0,0,0,0c0,0,0,0,0,0v48.2h0c0.3,12.9,10.8,23.3,23.8,23.3s23.5-10.4,23.8-23.3h0v-0.5H569c0,0,0,0,0,0v1.1h0.1
		c0.6,12.7,11,22.7,23.8,22.7c12.8,0,23.2-10.1,23.8-22.7h0.1L616.7,83.9L616.7,83.9z M521.3,83.9c0-13.2,10.7-23.8,23.8-23.8
		S569,70.8,569,83.9H521.3z"/>
	<path class="st0" d="M351.9,12.4c-5.9,0-11.3,2.1-15.4,5.7l-0.1-0.1L286,68.4l0.1,0.1c-1,1.2-1.9,2.5-2.7,3.9V36.3
		c0-13.2-10.7-23.8-23.8-23.8c-13.2,0-23.8,10.7-23.8,23.8v95.3c0,13.2,10.7,23.8,23.8,23.8c13.2,0,23.8-10.7,23.8-23.8V95.5
		c0.8,1.4,1.7,2.7,2.7,3.9l-0.1,0.1l1.4,1.4c0,0,0,0,0,0l49,49l0.1-0.1c4.2,3.5,9.5,5.7,15.4,5.7c13.2,0,23.8-10.7,23.8-23.8
		c0-5.9-2.1-11.3-5.7-15.4l0.1-0.1l-32.2-32.2l32.2-32.2l-0.1-0.1c3.5-4.2,5.7-9.5,5.7-15.4C375.7,23.1,365,12.4,351.9,12.4z"/>
	<path class="st0" d="M422.9,60.1c-13.2,0-23.8,10.7-23.8,23.8v47.7c0,13.2,10.7,23.8,23.8,23.8c13.2,0,23.8-10.7,23.8-23.8V83.9
		C446.7,70.8,436,60.1,422.9,60.1z"/>
	<ellipse transform="matrix(0.968 -0.2508 0.2508 0.968 6.9414 106.9129)" class="st0" cx="422.9" cy="26.2" rx="23.8" ry="23.8"/>
</g>
</svg>
